<svg xmlns="http://www.w3.org/2000/svg" viewBox="0 0 221.97 469.95"><defs><style>.cls-1{fill:#404040;}</style></defs><title>facebook</title><g id="Calque_2" data-name="Calque 2"><g id="Calque_1-2" data-name="Calque 1"><path class="cls-1" d="M134.64,232.93V470H57V233.21H0V155.39H56.8c0-2.39,0-4.19,0-6-.05-23.16-.53-46.33,0-69.48.61-29,15.52-49.55,39.89-63.76C115.33,5.27,136.09.64,157.36.1,177.94-.42,198.57,1.24,219.18,2a14.93,14.93,0,0,1,2.8.74l-9.25,76.18c-13.62-.65-26.9-2.1-40.11-1.66-11,.37-22,2.88-33,4.6-3.82.6-5.17,2.87-5.12,7,.25,20.33.11,40.66.11,61,0,1.64,0,3.28,0,5.43h83.62v77.67Z"/></g></g></svg>