<svg xmlns="http://www.w3.org/2000/svg" viewBox="0 0 459.67 449.37"><defs><style>.cls-1{fill:#404040;}</style></defs><title>linkedin</title><g id="Calque_2" data-name="Calque 2"><g id="Calque_1-2" data-name="Calque 1"><path class="cls-1" d="M174.37,146.09h88v48.46c6.91-6,12.82-11.43,19-16.47,38.8-31.48,82.18-36,127.86-19.41,30.93,11.21,46,35.82,49.45,67.9a204,204,0,0,1,.88,21.45q.1,97.23,0,194.46c0,2,0,4,0,6.89h-90c0-1.43,0-3.37,0-5.31,0-51.32.08-102.65-.09-154a123.35,123.35,0,0,0-2.06-22.33c-3.69-19.57-14.41-30.55-34.85-32.9A149.46,149.46,0,0,0,294,235.91c-15.65,2.33-23.71,13.1-26,31.13a147.85,147.85,0,0,0-1.22,18.42q-.14,78.48-.05,157v6.84h-92.3Z"/><path class="cls-1" d="M4,146.06H95.86v303.2H4Z"/><path class="cls-1" d="M50.94,0A50.66,50.66,0,1,1,0,50.68C-.17,22.77,22.72,0,50.94,0Z"/></g></g></svg>