<svg xmlns="http://www.w3.org/2000/svg" viewBox="0 0 40 40"><defs><style>.cls-1{fill:#404040;}</style></defs><title>wordpress</title><g id="Calque_2" data-name="Calque 2"><g id="Calque_1-2" data-name="Calque 1"><path class="cls-1" d="M0,20.72V19.28A2.08,2.08,0,0,0,0,19,18.5,18.5,0,0,1,.57,15.3,19.76,19.76,0,0,1,8.47,3.67,19.47,19.47,0,0,1,18.39.08L19.24,0h1.44l.24,0a18.5,18.5,0,0,1,3.22.41A19.69,19.69,0,0,1,35.49,7.38a19.54,19.54,0,0,1,4.44,11.07c0,.3.05.61.08.91v1.28c0,.07,0,.14,0,.21,0,.51-.07,1-.13,1.53a19.29,19.29,0,0,1-1.44,5.42A20,20,0,0,1,21.55,39.92l-1,.08H19.4l-.28,0A18.27,18.27,0,0,1,16,39.58a19.55,19.55,0,0,1-9.49-4.87A19.69,19.69,0,0,1,.08,21.61ZM1.18,20A18.82,18.82,0,1,0,20,1.18,18.81,18.81,0,0,0,1.18,20Z"/><path class="cls-1" d="M15.72,30.59l-.95-2.79L9.54,12.41l0-.08c-.12-.36-.06-.45.31-.45h1.72c.29,0,.33,0,.33-.34s0-.51,0-.76-.06-.3-.31-.3l-5.84.15H5.62A17.14,17.14,0,0,1,31.55,7.29c-.29,0-.58.07-.85.14a2.73,2.73,0,0,0-2.11,2.43,5.08,5.08,0,0,0,.69,3.09c.42.76.89,1.5,1.31,2.27a8.28,8.28,0,0,1,.95,4.92,19.38,19.38,0,0,1-1,4.18c-.65,1.94-1.28,3.89-1.92,5.84l-.08.21-.31-.88L22.42,12.42l0-.11c-.08-.28,0-.41.3-.42h1.64c.28,0,.32,0,.32-.33s0-.52,0-.78-.05-.29-.31-.29c-2.1,0-4.2.08-6.3.09-1.09,0-2.17-.06-3.26-.09-.24,0-.3,0-.3.28s0,.56,0,.84.06.27.28.27H16.4c.38,0,.48.07.61.42q1.23,3.35,2.45,6.71a.47.47,0,0,1,0,.28q-1.83,5.54-3.67,11.08Z"/><path class="cls-1" d="M25.74,36.2A17.32,17.32,0,0,1,15,36.45L20.3,21.3Z"/><path class="cls-1" d="M12.62,35.5A17.17,17.17,0,0,1,4.35,12.91Z"/><path class="cls-1" d="M28.29,35l.53-1.52q2.48-7,5-14.06A24.74,24.74,0,0,0,35,14.34c.09-.73.1-1.46.15-2.19a.74.74,0,0,1,0-.21,16.82,16.82,0,0,1,1.49,12.3A17.05,17.05,0,0,1,28.34,35Z"/></g></g></svg>